# xmcd CD database file
#
# Track frame offsets:
#	150
#	13128
#	24863
#	37659
#	50591
#	62809
#	73914
#	85667
#	96187
#	108394
#	119602
#	132427
#	144538
#	156001
#	167378
#	179049
#	190432
#	201970
#	213260
#	223800
#	236237
#	248333
#	258996
#	270513
#
# Disc length: 3753 seconds
#
# Revision: 0
# Processed by: cddbd v1.5.2PL0 Copyright (c) Steve Scherf et al.
# Submitted via: CDex 1.51
#
DISCID=5e0ea718
DTITLE=Various Artist - HILBILLY HOT ROD AND AUTOMOBILE SONGS
DYEAR=2006
DGENRE=Country
TTITLE0=THE SOUTHERNAIRES - Hot Rod Blues
TTITLE1=ARTHUR GUITAR BOOGIE SMITH - Hot Rod Race
TTITLE2=TILLMAN FRANKS - Hot rod-Shotgun Boogie No. 2
TTITLE3=FLOYD COMPTON - She Won't Turn Over For Me
TTITLE4=RICKY RIDDLE - Driving Down the Wrong Side of The Road
TTITLE5=PAUL TUTMARK - Midget Auto Blues
TTITLE6=GRANDPAPPY EARL DAVIS - Grandpappy's Hot Rod Blues
TTITLE7=DON JOHNSON - Flying Low
TTITLE8=JOHNNY RECTOR - If You Drink, Don't Drive
TTITLE9=BOB WILLIAMS - Hot Rod Race No. 2 
TTITLE10=TENNESSEE BUCK - Automobile Song
TTITLE11=RAMBLIN LOU - Car-Hoppin' Mamma
TTITLE12=JIMMIE HEAP - Honk Your Horn
TTITLE13=GEORGE STOGNER - Hardtop Race
TTITLE14=DRIFTING JOHNNY SMITH - Service Station Blues
TTITLE15=JIMMY LITTLEJOHN - No Parking Here
TTITLE16=SHOT JACKSON - I'm Trading you In On A Later Model
TTITLE17=LUKE MCDANIEL - The Automobile Song
TTITLE18=JACK TURNER - Model T Baby
TTITLE19=SLIM RHODES - Sixty Days
TTITLE20=BILLY BRIGGS - The Battery To My Heart
TTITLE21=PAUL WESTMORELAND - Hot Rod Rag
TTITLE22=BILL HALEY - Rocket "88"
TTITLE23=BOB WILLIAMS - Hot Rod Race No. 3
EXTD=YEAR: 2006
EXTT0=
EXTT1=
EXTT2=
EXTT3=
EXTT4=
EXTT5=
EXTT6=
EXTT7=
EXTT8=
EXTT9=
EXTT10=
EXTT11=
EXTT12=
EXTT13=
EXTT14=
EXTT15=
EXTT16=
EXTT17=
EXTT18=
EXTT19=
EXTT20=
EXTT21=
EXTT22=
EXTT23=
PLAYORDER=
